<svg width="32" height="32" viewBox="0 0 32 32" fill="none" xmlns="http://www.w3.org/2000/svg">
<path d="M0 8C0 3.58172 3.58172 0 8 0H24C28.4183 0 32 3.58172 32 8V24C32 28.4183 28.4183 32 24 32H8C3.58172 32 0 28.4183 0 24V8Z" fill="url(#paint0_linear_8_15)"/>
<path d="M19.9349 11.6374C20.1232 11.4425 20.3791 11.3319 20.6467 11.3299C20.9142 11.3279 21.1716 11.4345 21.3627 11.6266C21.5538 11.8186 21.663 12.0804 21.6664 12.3547C21.6698 12.6291 21.5672 12.8936 21.381 13.0906L15.9926 19.9982C15.9 20.1004 15.7883 20.1824 15.6641 20.2394C15.54 20.2963 15.4059 20.327 15.2699 20.3297C15.1339 20.3323 14.9987 20.3068 14.8726 20.2547C14.7464 20.2026 14.6318 20.125 14.5355 20.0264L10.9629 16.3643C10.7731 16.1696 10.6664 15.9054 10.6665 15.6301C10.6666 15.3547 10.7733 15.0906 10.9633 14.8959C11.1532 14.7012 11.4108 14.5919 11.6793 14.592C11.9479 14.592 12.2054 14.7015 12.3952 14.8963L15.2207 17.7943L19.9081 11.6698C19.9166 11.6586 19.9251 11.6473 19.9349 11.6374Z" fill="white"/>
<defs>
<linearGradient id="paint0_linear_8_15" x1="16" y1="0" x2="16" y2="32" gradientUnits="userSpaceOnUse">
<stop stop-color="#89F09C"/>
<stop offset="1" stop-color="#3CC755"/>
</linearGradient>
</defs>
</svg>
