<svg width="15" height="14" viewBox="0 0 15 14" fill="none" xmlns="http://www.w3.org/2000/svg">
<path d="M14.5851 3.2231C14.3616 2.70979 14.0395 2.24463 13.6366 1.85366C13.2335 1.46153 12.7581 1.14991 12.2365 0.935745C11.6955 0.712787 11.1153 0.598665 10.5296 0.600002C9.70783 0.600002 8.90607 0.82328 8.20933 1.24503C8.04264 1.34591 7.88429 1.45673 7.73427 1.57746C7.58426 1.45673 7.4259 1.34591 7.25922 1.24503C6.56247 0.82328 5.76071 0.600002 4.93895 0.600002C4.34722 0.600002 3.77382 0.712468 3.23209 0.935745C2.7087 1.15075 2.23698 1.46003 1.83193 1.85366C1.42854 2.24419 1.10631 2.70945 0.883487 3.2231C0.651794 3.75731 0.533447 4.3246 0.533447 4.90843C0.533447 5.45918 0.646794 6.03308 0.871819 6.61691C1.06017 7.10481 1.33021 7.61091 1.67524 8.12196C2.22197 8.93073 2.97373 9.77422 3.90717 10.6293C5.45401 12.0467 6.98585 13.0258 7.05086 13.0655L7.44591 13.3169C7.62093 13.4277 7.84595 13.4277 8.02097 13.3169L8.41602 13.0655C8.48103 13.0241 10.0112 12.0467 11.5597 10.6293C12.4932 9.77422 13.2449 8.93073 13.7916 8.12196C14.1367 7.61091 14.4084 7.10481 14.5951 6.61691C14.8201 6.03308 14.9334 5.45918 14.9334 4.90843C14.9351 4.3246 14.8168 3.75731 14.5851 3.2231Z" fill="#ececec"/>
</svg>
